<mxfile host="app.diagrams.net" agent="Mozilla/5.0 (Windows NT 10.0; Win64; x64; rv:135.0) Gecko/20100101 Firefox/135.0" modified="2025-02-16T09:57:00.873Z" version="23.1.1" etag="4pH2vm4TB4AuVwDc1ONg" type="github">
  <diagram name="Page-1" id="13e1069c-82ec-6db2-03f1-153e76fe0fe0">
    <mxGraphModel dx="2150" dy="530" grid="1" gridSize="10" guides="1" tooltips="1" connect="1" arrows="1" fold="1" page="1" pageScale="1" pageWidth="1100" pageHeight="850" background="none" math="0" shadow="0">
      <root>
        <mxCell id="0" />
        <mxCell id="1" parent="0" />
        <mxCell id="7baba1c4bc27f4b0-2" value="background.js" style="shape=umlLifeline;perimeter=lifelinePerimeter;whiteSpace=wrap;html=1;container=1;collapsible=0;recursiveResize=0;outlineConnect=0;rounded=1;shadow=0;comic=0;labelBackgroundColor=none;strokeWidth=1;fontFamily=Verdana;fontSize=12;align=center;" parent="1" vertex="1">
          <mxGeometry x="345" y="80" width="110" height="1080" as="geometry" />
        </mxCell>
        <mxCell id="7baba1c4bc27f4b0-10" value="" style="html=1;points=[];perimeter=orthogonalPerimeter;rounded=0;shadow=0;comic=0;labelBackgroundColor=none;strokeWidth=1;fontFamily=Verdana;fontSize=12;align=center;" parent="7baba1c4bc27f4b0-2" vertex="1">
          <mxGeometry x="50" y="300" width="10" height="45" as="geometry" />
        </mxCell>
        <mxCell id="uZNCchWY1rcSHj3j7vIb-1" value="" style="html=1;points=[];perimeter=orthogonalPerimeter;rounded=0;shadow=0;comic=0;labelBackgroundColor=none;strokeWidth=1;fontFamily=Verdana;fontSize=12;align=center;" vertex="1" parent="7baba1c4bc27f4b0-2">
          <mxGeometry x="50" y="630" width="10" height="350" as="geometry" />
        </mxCell>
        <mxCell id="uZNCchWY1rcSHj3j7vIb-4" value="" style="html=1;points=[];perimeter=orthogonalPerimeter;rounded=0;shadow=0;comic=0;labelBackgroundColor=none;strokeWidth=1;fontFamily=Verdana;fontSize=12;align=center;" vertex="1" parent="7baba1c4bc27f4b0-2">
          <mxGeometry x="55" y="710.02" width="10" height="40" as="geometry" />
        </mxCell>
        <mxCell id="uZNCchWY1rcSHj3j7vIb-5" value="apply mean power to&lt;br&gt;all array elements" style="html=1;verticalAlign=bottom;endArrow=block;labelBackgroundColor=none;fontFamily=Verdana;fontSize=12;elbow=vertical;edgeStyle=orthogonalEdgeStyle;curved=1;entryX=1;entryY=0.286;entryPerimeter=0;exitX=1.038;exitY=0.345;exitPerimeter=0;" edge="1" parent="7baba1c4bc27f4b0-2">
          <mxGeometry x="-0.2308" y="20" relative="1" as="geometry">
            <mxPoint x="60" y="690.02" as="sourcePoint" />
            <mxPoint x="65" y="728.02" as="targetPoint" />
            <Array as="points">
              <mxPoint x="115" y="690.02" />
              <mxPoint x="115" y="728.02" />
            </Array>
            <mxPoint as="offset" />
          </mxGeometry>
        </mxCell>
        <mxCell id="uZNCchWY1rcSHj3j7vIb-8" value="" style="html=1;points=[];perimeter=orthogonalPerimeter;rounded=0;shadow=0;comic=0;labelBackgroundColor=none;strokeWidth=1;fontFamily=Verdana;fontSize=12;align=center;" vertex="1" parent="7baba1c4bc27f4b0-2">
          <mxGeometry x="55" y="800" width="10" height="40" as="geometry" />
        </mxCell>
        <mxCell id="uZNCchWY1rcSHj3j7vIb-9" value="logistic regression to &lt;br&gt;get single value" style="html=1;verticalAlign=bottom;endArrow=block;labelBackgroundColor=none;fontFamily=Verdana;fontSize=12;elbow=vertical;edgeStyle=orthogonalEdgeStyle;curved=1;entryX=1;entryY=0.286;entryPerimeter=0;exitX=1.038;exitY=0.345;exitPerimeter=0;" edge="1" parent="7baba1c4bc27f4b0-2">
          <mxGeometry x="-0.2307" y="20" relative="1" as="geometry">
            <mxPoint x="60" y="780" as="sourcePoint" />
            <mxPoint x="65" y="818" as="targetPoint" />
            <Array as="points">
              <mxPoint x="115" y="780" />
              <mxPoint x="115" y="818" />
            </Array>
            <mxPoint as="offset" />
          </mxGeometry>
        </mxCell>
        <mxCell id="uZNCchWY1rcSHj3j7vIb-23" value="[adult]" style="rounded=0;whiteSpace=wrap;html=1;strokeColor=none;" vertex="1" parent="7baba1c4bc27f4b0-2">
          <mxGeometry x="30" y="890" width="50" height="20" as="geometry" />
        </mxCell>
        <mxCell id="7baba1c4bc27f4b0-3" value="offscreen.js" style="shape=umlLifeline;perimeter=lifelinePerimeter;whiteSpace=wrap;html=1;container=1;collapsible=0;recursiveResize=0;outlineConnect=0;rounded=1;shadow=0;comic=0;labelBackgroundColor=none;strokeWidth=1;fontFamily=Verdana;fontSize=12;align=center;" parent="1" vertex="1">
          <mxGeometry x="510" y="80" width="100" height="1040" as="geometry" />
        </mxCell>
        <mxCell id="7baba1c4bc27f4b0-13" value="" style="html=1;points=[];perimeter=orthogonalPerimeter;rounded=0;shadow=0;comic=0;labelBackgroundColor=none;strokeWidth=1;fontFamily=Verdana;fontSize=12;align=center;" parent="7baba1c4bc27f4b0-3" vertex="1">
          <mxGeometry x="45" y="330" width="10" height="320" as="geometry" />
        </mxCell>
        <mxCell id="8xPXAvPmaVqkZDDtye4j-11" value="" style="html=1;points=[];perimeter=orthogonalPerimeter;rounded=0;shadow=0;comic=0;labelBackgroundColor=none;strokeWidth=1;fontFamily=Verdana;fontSize=12;align=center;" parent="7baba1c4bc27f4b0-3" vertex="1">
          <mxGeometry x="50" y="380" width="10" height="40" as="geometry" />
        </mxCell>
        <mxCell id="8xPXAvPmaVqkZDDtye4j-12" value="run classification using WebGPU" style="html=1;verticalAlign=bottom;endArrow=block;labelBackgroundColor=none;fontFamily=Verdana;fontSize=12;elbow=vertical;edgeStyle=orthogonalEdgeStyle;curved=1;entryX=1;entryY=0.286;entryPerimeter=0;exitX=1.038;exitY=0.345;exitPerimeter=0;" parent="7baba1c4bc27f4b0-3" edge="1">
          <mxGeometry x="-0.2308" y="80" relative="1" as="geometry">
            <mxPoint x="55" y="450" as="sourcePoint" />
            <mxPoint x="60" y="488.02" as="targetPoint" />
            <Array as="points">
              <mxPoint x="110" y="450" />
              <mxPoint x="110" y="488" />
            </Array>
            <mxPoint as="offset" />
          </mxGeometry>
        </mxCell>
        <mxCell id="8xPXAvPmaVqkZDDtye4j-16" value="flatten data into array of sentences" style="html=1;verticalAlign=bottom;endArrow=block;labelBackgroundColor=none;fontFamily=Verdana;fontSize=12;elbow=vertical;edgeStyle=orthogonalEdgeStyle;curved=1;entryX=1;entryY=0.286;entryPerimeter=0;exitX=1.038;exitY=0.345;exitPerimeter=0;" parent="7baba1c4bc27f4b0-3" edge="1">
          <mxGeometry x="-0.2309" y="80" relative="1" as="geometry">
            <mxPoint x="55" y="360" as="sourcePoint" />
            <mxPoint x="60" y="398" as="targetPoint" />
            <Array as="points">
              <mxPoint x="110" y="360" />
              <mxPoint x="110" y="398" />
            </Array>
            <mxPoint as="offset" />
          </mxGeometry>
        </mxCell>
        <mxCell id="8xPXAvPmaVqkZDDtye4j-17" value="" style="html=1;points=[];perimeter=orthogonalPerimeter;rounded=0;shadow=0;comic=0;labelBackgroundColor=none;strokeWidth=1;fontFamily=Verdana;fontSize=12;align=center;" parent="7baba1c4bc27f4b0-3" vertex="1">
          <mxGeometry x="50" y="470" width="10" height="40" as="geometry" />
        </mxCell>
        <mxCell id="8xPXAvPmaVqkZDDtye4j-18" value="reformat data to JSON " style="html=1;verticalAlign=bottom;endArrow=block;labelBackgroundColor=none;fontFamily=Verdana;fontSize=12;elbow=vertical;edgeStyle=orthogonalEdgeStyle;curved=1;entryX=1;entryY=0.286;entryPerimeter=0;exitX=1.038;exitY=0.345;exitPerimeter=0;" parent="7baba1c4bc27f4b0-3" edge="1">
          <mxGeometry x="-0.2309" y="50" relative="1" as="geometry">
            <mxPoint x="55" y="540" as="sourcePoint" />
            <mxPoint x="60" y="578.02" as="targetPoint" />
            <Array as="points">
              <mxPoint x="110" y="540" />
              <mxPoint x="110" y="578" />
            </Array>
            <mxPoint as="offset" />
          </mxGeometry>
        </mxCell>
        <mxCell id="8xPXAvPmaVqkZDDtye4j-19" value="" style="html=1;points=[];perimeter=orthogonalPerimeter;rounded=0;shadow=0;comic=0;labelBackgroundColor=none;strokeWidth=1;fontFamily=Verdana;fontSize=12;align=center;" parent="7baba1c4bc27f4b0-3" vertex="1">
          <mxGeometry x="50" y="560" width="10" height="40" as="geometry" />
        </mxCell>
        <mxCell id="7baba1c4bc27f4b0-14" value="port posts message&lt;br&gt;sending data" style="html=1;verticalAlign=bottom;endArrow=block;entryX=0;entryY=0;labelBackgroundColor=none;fontFamily=Verdana;fontSize=12;edgeStyle=elbowEdgeStyle;elbow=vertical;" parent="7baba1c4bc27f4b0-3" edge="1">
          <mxGeometry relative="1" as="geometry">
            <mxPoint x="-105" y="335.3869230769231" as="sourcePoint" />
            <mxPoint x="45" y="335.31000000000023" as="targetPoint" />
          </mxGeometry>
        </mxCell>
        <mxCell id="7baba1c4bc27f4b0-5" value="web-page" style="shape=umlLifeline;perimeter=lifelinePerimeter;whiteSpace=wrap;html=1;container=1;collapsible=0;recursiveResize=0;outlineConnect=0;rounded=1;shadow=0;comic=0;labelBackgroundColor=none;strokeWidth=1;fontFamily=Verdana;fontSize=12;align=center;" parent="1" vertex="1">
          <mxGeometry x="30" y="80" width="100" height="1070" as="geometry" />
        </mxCell>
        <mxCell id="8xPXAvPmaVqkZDDtye4j-20" value="" style="html=1;points=[];perimeter=orthogonalPerimeter;rounded=0;shadow=0;comic=0;labelBackgroundColor=none;strokeWidth=1;fontFamily=Verdana;fontSize=12;align=center;" parent="7baba1c4bc27f4b0-5" vertex="1">
          <mxGeometry x="45" y="60" width="10" height="170" as="geometry" />
        </mxCell>
        <mxCell id="8xPXAvPmaVqkZDDtye4j-24" value="&lt;div&gt;on page load&lt;/div&gt;" style="html=1;verticalAlign=bottom;endArrow=block;labelBackgroundColor=none;fontFamily=Verdana;fontSize=12;edgeStyle=elbowEdgeStyle;elbow=vertical;" parent="7baba1c4bc27f4b0-5" edge="1">
          <mxGeometry relative="1" as="geometry">
            <mxPoint x="-50" y="70" as="sourcePoint" />
            <mxPoint x="45" y="70.25" as="targetPoint" />
          </mxGeometry>
        </mxCell>
        <mxCell id="7baba1c4bc27f4b0-6" value=":Object" style="shape=umlLifeline;perimeter=lifelinePerimeter;whiteSpace=wrap;html=1;container=1;collapsible=0;recursiveResize=0;outlineConnect=0;rounded=1;shadow=0;comic=0;labelBackgroundColor=none;strokeWidth=1;fontFamily=Verdana;fontSize=12;align=center;" parent="1" vertex="1">
          <mxGeometry x="820" y="80" width="100" height="580" as="geometry" />
        </mxCell>
        <mxCell id="7baba1c4bc27f4b0-7" value=":Object" style="shape=umlLifeline;perimeter=lifelinePerimeter;whiteSpace=wrap;html=1;container=1;collapsible=0;recursiveResize=0;outlineConnect=0;rounded=1;shadow=0;comic=0;labelBackgroundColor=none;strokeWidth=1;fontFamily=Verdana;fontSize=12;align=center;" parent="1" vertex="1">
          <mxGeometry x="960" y="80" width="100" height="580" as="geometry" />
        </mxCell>
        <mxCell id="7baba1c4bc27f4b0-8" value="content.js" style="shape=umlLifeline;perimeter=lifelinePerimeter;whiteSpace=wrap;html=1;container=1;collapsible=0;recursiveResize=0;outlineConnect=0;rounded=1;shadow=0;comic=0;labelBackgroundColor=none;strokeWidth=1;fontFamily=Verdana;fontSize=12;align=center;" parent="1" vertex="1">
          <mxGeometry x="190" y="80" width="100" height="1050" as="geometry" />
        </mxCell>
        <mxCell id="7baba1c4bc27f4b0-9" value="" style="html=1;points=[];perimeter=orthogonalPerimeter;rounded=0;shadow=0;comic=0;labelBackgroundColor=none;strokeWidth=1;fontFamily=Verdana;fontSize=12;align=center;" parent="7baba1c4bc27f4b0-8" vertex="1">
          <mxGeometry x="45" y="90" width="10" height="230" as="geometry" />
        </mxCell>
        <mxCell id="8xPXAvPmaVqkZDDtye4j-2" value="&lt;br&gt;format data as JSON" style="html=1;verticalAlign=bottom;endArrow=block;labelBackgroundColor=none;fontFamily=Verdana;fontSize=12;elbow=vertical;edgeStyle=orthogonalEdgeStyle;curved=1;entryX=1;entryY=0.286;entryPerimeter=0;exitX=1.038;exitY=0.345;exitPerimeter=0;" parent="7baba1c4bc27f4b0-8" edge="1">
          <mxGeometry x="-0.2306" y="-20" relative="1" as="geometry">
            <mxPoint x="55" y="220" as="sourcePoint" />
            <mxPoint x="60" y="258" as="targetPoint" />
            <Array as="points">
              <mxPoint x="110" y="220" />
              <mxPoint x="110" y="258" />
            </Array>
            <mxPoint x="40" as="offset" />
          </mxGeometry>
        </mxCell>
        <mxCell id="8xPXAvPmaVqkZDDtye4j-3" value="" style="html=1;points=[];perimeter=orthogonalPerimeter;rounded=0;shadow=0;comic=0;labelBackgroundColor=none;strokeWidth=1;fontFamily=Verdana;fontSize=12;align=center;" parent="7baba1c4bc27f4b0-8" vertex="1">
          <mxGeometry x="50" y="239" width="10" height="40" as="geometry" />
        </mxCell>
        <mxCell id="8xPXAvPmaVqkZDDtye4j-15" value="send message&lt;br&gt;w/ the data" style="html=1;verticalAlign=bottom;endArrow=block;entryX=0;entryY=0;labelBackgroundColor=none;fontFamily=Verdana;fontSize=12;edgeStyle=elbowEdgeStyle;elbow=vertical;" parent="7baba1c4bc27f4b0-8" edge="1">
          <mxGeometry relative="1" as="geometry">
            <mxPoint x="55" y="310.2969230769231" as="sourcePoint" />
            <mxPoint x="205" y="310.22000000000025" as="targetPoint" />
          </mxGeometry>
        </mxCell>
        <mxCell id="8xPXAvPmaVqkZDDtye4j-26" value="return" style="html=1;verticalAlign=bottom;endArrow=block;entryX=0;entryY=0;labelBackgroundColor=none;fontFamily=Verdana;fontSize=12;edgeStyle=elbowEdgeStyle;elbow=vertical;dashed=1;endSize=8;" parent="7baba1c4bc27f4b0-8" edge="1">
          <mxGeometry relative="1" as="geometry">
            <mxPoint x="-105" y="199.9269230769231" as="sourcePoint" />
            <mxPoint x="45" y="199.85000000000022" as="targetPoint" />
          </mxGeometry>
        </mxCell>
        <mxCell id="7baba1c4bc27f4b0-28" value="" style="html=1;points=[];perimeter=orthogonalPerimeter;rounded=0;shadow=0;comic=0;labelBackgroundColor=none;strokeWidth=1;fontFamily=Verdana;fontSize=12;align=center;" parent="1" vertex="1">
          <mxGeometry x="870" y="550" width="10" height="60" as="geometry" />
        </mxCell>
        <mxCell id="7baba1c4bc27f4b0-30" value="return" style="html=1;verticalAlign=bottom;endArrow=open;dashed=1;endSize=8;labelBackgroundColor=none;fontFamily=Verdana;fontSize=12;edgeStyle=elbowEdgeStyle;elbow=vertical;" parent="1" source="7baba1c4bc27f4b0-28" edge="1">
          <mxGeometry relative="1" as="geometry">
            <mxPoint x="790" y="660" as="targetPoint" />
            <Array as="points">
              <mxPoint x="540" y="790" />
              <mxPoint x="560" y="700" />
              <mxPoint x="570" y="600" />
            </Array>
          </mxGeometry>
        </mxCell>
        <mxCell id="7baba1c4bc27f4b0-40" value="&lt;div&gt;Interacts with&lt;/div&gt;&lt;div&gt;web-page&lt;br&gt;&lt;/div&gt;" style="shape=note;whiteSpace=wrap;html=1;size=14;verticalAlign=top;align=left;spacingTop=-6;rounded=0;shadow=0;comic=0;labelBackgroundColor=none;strokeWidth=1;fontFamily=Verdana;fontSize=12" parent="1" vertex="1">
          <mxGeometry x="190" y="30" width="100" height="35" as="geometry" />
        </mxCell>
        <mxCell id="7baba1c4bc27f4b0-41" value="Central script&lt;br&gt;containing logic" style="shape=note;whiteSpace=wrap;html=1;size=14;verticalAlign=top;align=left;spacingTop=-6;rounded=0;shadow=0;comic=0;labelBackgroundColor=none;strokeWidth=1;fontFamily=Verdana;fontSize=12" parent="1" vertex="1">
          <mxGeometry x="350" y="30" width="100" height="35" as="geometry" />
        </mxCell>
        <mxCell id="7baba1c4bc27f4b0-42" value="&lt;div&gt;Uses .html to&lt;/div&gt;&lt;div&gt;access WebGPU&lt;br&gt;&lt;/div&gt;" style="shape=note;whiteSpace=wrap;html=1;size=14;verticalAlign=top;align=left;spacingTop=-6;rounded=0;shadow=0;comic=0;labelBackgroundColor=none;strokeWidth=1;fontFamily=Verdana;fontSize=12" parent="1" vertex="1">
          <mxGeometry x="510" y="30" width="100" height="35" as="geometry" />
        </mxCell>
        <mxCell id="7baba1c4bc27f4b0-44" value="&lt;div&gt;User end view&lt;/div&gt;&lt;div&gt;of a web-page&lt;br&gt;&lt;/div&gt;" style="shape=note;whiteSpace=wrap;html=1;size=14;verticalAlign=top;align=left;spacingTop=-6;rounded=0;shadow=0;comic=0;labelBackgroundColor=none;strokeWidth=1;fontFamily=Verdana;fontSize=12" parent="1" vertex="1">
          <mxGeometry x="30" y="30" width="100" height="35" as="geometry" />
        </mxCell>
        <mxCell id="7baba1c4bc27f4b0-45" value="Note" style="shape=note;whiteSpace=wrap;html=1;size=14;verticalAlign=top;align=left;spacingTop=-6;rounded=0;shadow=0;comic=0;labelBackgroundColor=none;strokeWidth=1;fontFamily=Verdana;fontSize=12" parent="1" vertex="1">
          <mxGeometry x="820" y="30" width="100" height="35" as="geometry" />
        </mxCell>
        <mxCell id="7baba1c4bc27f4b0-46" value="Note" style="shape=note;whiteSpace=wrap;html=1;size=14;verticalAlign=top;align=left;spacingTop=-6;rounded=0;shadow=0;comic=0;labelBackgroundColor=none;strokeWidth=1;fontFamily=Verdana;fontSize=12" parent="1" vertex="1">
          <mxGeometry x="960" y="30" width="100" height="35" as="geometry" />
        </mxCell>
        <mxCell id="8xPXAvPmaVqkZDDtye4j-22" value="&lt;div&gt;Content script inserted&amp;nbsp;&lt;/div&gt;&lt;div&gt;by browser extension.&lt;br&gt;&lt;/div&gt;" style="html=1;verticalAlign=bottom;endArrow=open;entryX=0;entryY=0;labelBackgroundColor=none;fontFamily=Verdana;fontSize=12;edgeStyle=elbowEdgeStyle;elbow=vertical;dashed=1;endSize=8;endFill=0;" parent="1" edge="1">
          <mxGeometry relative="1" as="geometry">
            <mxPoint x="85" y="180.0769230769231" as="sourcePoint" />
            <mxPoint x="235" y="180.00000000000023" as="targetPoint" />
          </mxGeometry>
        </mxCell>
        <mxCell id="8xPXAvPmaVqkZDDtye4j-25" value="request HTML data" style="html=1;verticalAlign=bottom;endArrow=block;labelBackgroundColor=none;fontFamily=Verdana;fontSize=12;edgeStyle=elbowEdgeStyle;elbow=vertical;" parent="1" edge="1">
          <mxGeometry relative="1" as="geometry">
            <mxPoint x="235" y="229.99692307692308" as="sourcePoint" />
            <mxPoint x="85" y="230.29" as="targetPoint" />
          </mxGeometry>
        </mxCell>
        <mxCell id="uZNCchWY1rcSHj3j7vIb-2" value="port posts message&lt;br&gt;returning classification&lt;br&gt;results" style="html=1;verticalAlign=bottom;endArrow=block;labelBackgroundColor=none;fontFamily=Verdana;fontSize=12;edgeStyle=elbowEdgeStyle;elbow=vertical;" edge="1" parent="1">
          <mxGeometry relative="1" as="geometry">
            <mxPoint x="555" y="720.2369230769231" as="sourcePoint" />
            <mxPoint x="405" y="720.53" as="targetPoint" />
          </mxGeometry>
        </mxCell>
        <mxCell id="uZNCchWY1rcSHj3j7vIb-3" value="\caption{This graph is for script interaction, a more precise pipeline can be found in our pipe and filter diagram.}" style="shape=note;whiteSpace=wrap;html=1;size=14;verticalAlign=top;align=left;spacingTop=-6;rounded=0;shadow=0;comic=0;labelBackgroundColor=none;strokeWidth=1;fontFamily=Verdana;fontSize=12" vertex="1" parent="1">
          <mxGeometry x="-190" y="40" width="100" height="160" as="geometry" />
        </mxCell>
        <mxCell id="uZNCchWY1rcSHj3j7vIb-21" value="alt" style="shape=umlFrame;whiteSpace=wrap;html=1;pointerEvents=0;" vertex="1" parent="1">
          <mxGeometry y="940" width="500" height="140" as="geometry" />
        </mxCell>
        <mxCell id="uZNCchWY1rcSHj3j7vIb-22" value="" style="html=1;points=[[0,0,0,0,5],[0,1,0,0,-5],[1,0,0,0,5],[1,1,0,0,-5]];perimeter=orthogonalPerimeter;outlineConnect=0;targetShapes=umlLifeline;portConstraint=eastwest;newEdgeStyle={&quot;curved&quot;:0,&quot;rounded&quot;:0};" vertex="1" parent="1">
          <mxGeometry x="75" y="970" width="10" height="50" as="geometry" />
        </mxCell>
        <mxCell id="uZNCchWY1rcSHj3j7vIb-26" value="block page" style="html=1;verticalAlign=bottom;endArrow=block;labelBackgroundColor=none;fontFamily=Verdana;fontSize=12;edgeStyle=elbowEdgeStyle;elbow=vertical;exitX=-0.09;exitY=0.828;exitDx=0;exitDy=0;exitPerimeter=0;" edge="1" parent="1" source="uZNCchWY1rcSHj3j7vIb-1" target="uZNCchWY1rcSHj3j7vIb-22">
          <mxGeometry relative="1" as="geometry">
            <mxPoint x="390" y="999.996923076923" as="sourcePoint" />
            <mxPoint x="86" y="1000" as="targetPoint" />
            <Array as="points">
              <mxPoint x="395" y="1000" />
            </Array>
          </mxGeometry>
        </mxCell>
        <mxCell id="uZNCchWY1rcSHj3j7vIb-27" value="[safe]" style="rounded=0;whiteSpace=wrap;html=1;strokeColor=none;" vertex="1" parent="1">
          <mxGeometry x="375" y="1020" width="50" height="20" as="geometry" />
        </mxCell>
        <mxCell id="uZNCchWY1rcSHj3j7vIb-28" value="&lt;br&gt;ask how to do a redirect here? - should i just terminate the page with an x - should it have been active up to this point since it was open?" style="shape=note;whiteSpace=wrap;html=1;size=14;verticalAlign=top;align=left;spacingTop=-6;rounded=0;shadow=0;comic=0;labelBackgroundColor=none;strokeWidth=1;fontFamily=Verdana;fontSize=12" vertex="1" parent="1">
          <mxGeometry x="-120" y="810" width="100" height="160" as="geometry" />
        </mxCell>
      </root>
    </mxGraphModel>
  </diagram>
</mxfile>
